/* XPM */
static const char *black_checker_xpm[] = {
/* columns rows colors chars-per-pixel */
"75 75 58 1 ",
"  c None",
". c #000000",
"X c #010101",
"o c #020202",
"O c #060606",
"+ c #3F3F3F",
"@ c #404040",
"# c #0C0C0C",
"$ c #0E0E0E",
"% c #101010",
"& c #111111",
"* c #7F7F7F",
"= c #9F9F9F",
"- c #181818",
"; c #191919",
": c #1B1B1B",
"> c #1D1D1D",
", c #1E1E1E",
"< c #222222",
"1 c #232323",
"2 c #2B2B2B",
"3 c #252525",
"4 c #2E2E2E",
"5 c #303030",
"6 c #272727",
"7 c #282828",
"8 c #2F2F2F",
"9 c #2A2A2A",
"0 c #313131",
"q c #323232",
"w c #343434",
"e c #353535",
"r c #3B3B3B",
"t c #3D3D3D",
"y c #313131",
"u c #363636",
"i c #373737",
"p c #383838",
"a c #3E3E3E",
"s c #393939",
"d c #3F3F3F",
"f c #3A3A3A",
"g c #3C3C3C",
"h c #424242",
"j c #414141",
"k c #454545",
"l c #464646",
"z c #474747",
"x c #484848",
"c c #4A4A4A",
"v c #4B4B4B",
"b c #505050",
"n c #4F4F4F",
"m c #545454",
"M c #565656",
"N c #595959",
"B c #585858",
"V c #4D4D4D",
/* pixels */
"                                                                           ",
"                                                                           ",
"                                                                           ",
"                                BBBVVVVVBBB                                ",
"                           BBBVVVVVVVVVVVVVVVVBB                           ",
"                         BVVVBVVVVVVVVVVVVVVVBBVVB                         ",
"                      BBVVVVVVVVVVVVVVVVVVVVVVVVVVVVB                      ",
"                    BVVVVVVVVVVVVVVVVVVVVVVVVVVVVVVVBBB                    ",
"                   BVVVVVVVVVVVVVBVVBVVVVBBVBVVVVVVVVVVV                   ",
"                 BVVVVVVVVVVVBbhye7411147eyhbVVVVVVVVVVVBB                 ",
"                BVVVVVVVVVVxy41111111111111114exVVBBVVVVBVB                ",
"               VVVVVVVVVBs41111111111111111111114sBVVVVVBVBV               ",
"              VVVVVVBBBs1111114esxbBBVVBbxse4111114yBVVVVVVVV              ",
"             VVVVVVVVh411114ybVVBBVVVVVVBBVVBbs411114hVVVVVVVV             ",
"            VVVVVVVBe11117hVVVVVBVVVVVVVBVVVVVVVx71111eBVVVVVVV            ",
"           BVVVVVVx41117hVVVVVVVVVVVVVVVVVVVVVVVBVh71114xVVVVVVB           ",
"          BVVVVVVh1111yBVVVVVVVVVVVVVVVVVVVVVVVVBVVBy1111hBVVVVVB          ",
"         bBBVVVBh1114xVVVVVVVVVVVVVVVVVVVVVVVVVVVVVVBx4111hVVVVVVb         ",
"         VVVVVVh1117bVVVVVVVVVVVVVVVVVVVVVVVVVVVVVVVVVb7111hVVVVVV         ",
"        BVVVVVx1117BVVVVVVVVVVVVVVVVVVVVVVVVVVVVVVVVVVVB7411xVVVBBB        ",
"       xVVVVBb4147BVVVVVVVVVVVVVVVVVVVVVVVVVVVVVVVVVVVVVB7114bBVVVVx       ",
"       VVVVVVe114bBVVVVVVVVVVVVVVVVVVVVVVVVVVVVVVVVVVVVVVb411eVVVVVV       ",
"      xBVVVVs111xVVVVVVVVVVVVVVVVBVVVVVVVVVVVVVVVVVVVVVVVVx111sVVVVVx      ",
"      VVVVVb411sVVVVVVVVVVVVVVBBBxy741447yhVVVVVVVVVVVVVVVBs111BVVVVV      ",
"     xBVVVVy114VVVVVVVVVVVVVVVBy411111111114sbVVVVVVVVVVVVVV711yVVVVVh     ",
"     bBBVVb111xBVVVVVVVVVVVVBh1117sxBBBBbs7111sVVVVVVVVVVVVVx111bVVVBB     ",
"     VVVVVy11eVVVVVVVVVVBBVBe11ybVVVVVBBVVBbe11eBVVVVVVVVVVVV711yVVVBV     ",
"    hVVVVV411xVVVVVVVVVVVBBe14hVVVVVVVVBVVVVVx117BVVVVVVVVVVVx114VVVBVh    ",
"    bVVVVh117VVVVVVVVVVVVVe17bVVVVVVVVVVVVVVVVb74eVVVVVVVVVVVV741hVVVVb    ",
"    VVVVVe11hVVVVVVVVVVVBs14bVVVVVVVVVVVVVVVVVVb41sVVVVVVVVVVVs11eVVVVV    ",
"    VVVVB111bVVVVVVVVVVVb11xVVVVVVVVVVVVVVVVVVVVx11bVVVVVVVVVVB111BVVVV    ",
"   sVVVVx117BVVVVVVVVVVVe1yVVVVVVVVVVVVVVVVVVVVVVy1eVVVVVVVVVVV411xVVVVs   ",
"   hVVVVs11yVVVVVVVVVVVb11bVVVVVVVVVVVVVVVVVVVVVVb11bVVVVVVVVVVy11sVVVVx   ",
"   xVVVVy11sVVVVVVVVVVVh1yVVVVVVVVVVVVVVVVVVVVVVVVy1hVVVVVVVVVBh11yVVVBx   ",
"   BVVVV711xVVVVVVVVVVVy1hVVVVVVVVVVVVVVVVVVVVVVVBh1yBVVVVVVVVVx117VVVVb   ",
"   BVVVV411BVVVVVVVVVVV41bVVVVVVVVVVVVVVVVVVVVVVVBb17VVVVVVVVVVb144VVVVB   ",
"   VVVVV411VVVVVVVVVVVV41BBBVVVVVVVVVVVVVVVVVVVVVVB14BVVVVVVVVVB114VVVVV   ",
"   VVVVV111VVVVVVVVVVVV11BVVVVVVVVVVVVVVVVVVVVVVVVB11VVVVVVVVVVV111BVVVV   ",
"   VVVVV111VVVVVVVVVVVV41BVVVVVVVVVVVVVVVVVVVVVVVVB14VVVVVVVVVVV111VVVBB   ",
"   BVVVV411VVVVVVVVVVVV41bVVVVVVVVVVVVVVVVVVVVVVVVb14VVVVVVVVVBB114VVVBB   ",
"   bVVVV711bVVVVVVVVVVVe1hBVVVVVVVVVVVVVVVVVVVVVVVh1eVVVVVVVVVVb114VVVBb   ",
"   xVVVV711xVVVVVVVVVVBh1eVVVVVVVVVVVVVVVVVVVVVVVVe1hVVVVVVVVVBb11eBVVBx   ",
"   sVVVVy11hVVVVVVVVVVVB11bBVVVVVVVVVVVVVVVVVVVVVb11bVVVVVVVVVBh11yVVVVs   ",
"   eVVVVs11yVVVVVVVVVBBBy1yBVVVVVVVVVVVVVVVVVVVVVy1yVVVVVVVVVVBy11sVVVVe   ",
"   1VVVVx114VVVVVVVVVVVVb11xVVVVVVVVVVVVVVVVVVBBx11bVVVVVVVVVVV711xVVVB1   ",
"    VVVVB411bVVVVVVVVVVVBs14bVVBVVVVVVVVVVVVVVBB41sVVVVVVVVVVVb111BVVVV    ",
"    xVVVVe11hBVVVVVVVVVVBVe17bBBVVVVVVVVVVVVVVb71eBBVVVVVVVVVVh11eVVVVx    ",
"    eVVVVh117BVVVVVVVVVVBBBe14xBVVVVVVVVVVVVVh417BVVVVVVVVVVVB711hVVVVe    ",
"    =VVVVB411xBBVVVVVVVVVVVBe11ybBVVVBBBVVVxy11eVVVVVVVVVVVVVx114BVVVV=    ",
"     xVVVBy11eVBVVVVVVVVVVVVVs111esxBBBBxh7111sVVVVVVVVVVVVVVe11yVVVVx     ",
"     7VVVVb111xBVVVVVVVVVVVVVVBy114111111111yBVVVVVVVVVVVVVVx111bVVVV7     ",
"     +VVVVVy117BVVVVVVVVVVVVVBBVVhy711447yxBBBVVVVVVVVVVVVVV411yVVVVB+     ",
"      eVVVBB411sBBVVVVVVVVVVVVVVVVVVVVVVVVVVVVVVVVVVVVVVVVVs111BVVVVy      ",
"      $VVBBVs111xBVVVVVVVVVVVVVVVVVVVVVVVVVVVVVVVVVVVVVVVBx111sBVVVV$      ",
"       7VVVVVe114BVVVVVVVVVVVVVVVVVVVVVVVVVVVVVVVVVVVVVVVb411eVVVVV7       ",
"       .xVVVVb4117BVVVVVVVVVVVVVVVVVVVVVVVVVVVVVVVVVVVVVB7114bVVVVb.       ",
"        >VVVVVx1117BVVVVVVVVVVVVVVVVVVVVVVVVVVVVVVVVVVVBe111xVVVVV>        ",
"        .eBBVVBh1117bVVVVVVVVVVVVVVVVVVVVVVVVVVVVVVVVVb7111hBVVVVe.        ",
"         .xBVVVVh1114xBVVVVVVVVVVVVVVVVVVVVVVVVVVVVVVx4111hBVVVVh.         ",
"          $BVVVVVh1111yVVVVVVVVVVVVVVVVVVVVVVVVVVVBBy1111hBBVBBB*          ",
"          .;VVVVVVx41114hVVVVVVVVVVVVVVVVVVVVVVVVVh71114xVVVVVV;.          ",
"           .>VVVVVVBe11117hVVVVVVVVVVVVVVBVVVVVVh71111eBVVVVVV>.           ",
"            .>VVVVVVVh411114sxBBVVBVVVVVBBVVVby411114hVVVVBBV>.            ",
"             .=BVVVVVVBs1114114esxbBVBBBbxsy4111111sBVVVVVBB;.             ",
"              .$hVVVVVVVVs41111111111111111111114sBVVVVVVVx$.              ",
"               ..eVVVVVVVVBxy41111111111111114yxVVVVVVVVVe..               ",
"                ..;bVVVVVVVVVVbhye7411144eyhbVVVVVVVVVVx;..                ",
"                  ..7VVVVVVVVVBBVVVVVVVVVVVBVVVVVVVVVV7..                  ",
"                   ..+7VVBVVVVVVVVVVVVVVVVVVVVVVBBVVe+..                   ",
"                     ..O4xVVVVVVVVVVVVVVVVVVVVVVBx4O..                     ",
"                       ...*4hBVVVVBBVVBBVBBVVBh4*...                       ",
"                         ....O=4ehxBBVBBbhy1;O....                         ",
"                            ...................                            ",
"                                 .........                                 ",
"                                                                           "
};
