/* XPM */
static const char *black_queen_xpm[] = {
/* columns rows colors chars-per-pixel */
"75 75 220 2 ",
"   c None",
".  c #000000",
"X  c #0B0B0B",
"o  c #080808",
"O  c #1B1B1B",
"+  c #232323",
"@  c #2B2B2B",
"#  c #343434",
"$  c #3C3C3C",
"%  c #433F3B",
"&  c #594D2D",
"*  c #5E502C",
"=  c #4B4435",
"-  c #45423B",
";  c #4B463B",
":  c #4D493E",
">  c #474236",
",  c #554D36",
"<  c #544D3A",
"1  c #554B34",
"2  c #5B5235",
"3  c #5C543B",
"4  c #57513D",
"5  c #64552C",
"6  c #6B5B2B",
"7  c #615635",
"8  c #655936",
"9  c #695D34",
"0  c #655B3D",
"q  c #6B5F39",
"w  c #715D26",
"e  c #73612C",
"r  c #7B6627",
"t  c #6F6135",
"y  c #6D633F",
"u  c #746433",
"i  c #7B6A34",
"p  c #73663C",
"a  c #77693B",
"s  c #7A6C3C",
"d  c #7E703F",
"f  c #454545",
"g  c #494743",
"h  c #4B4A45",
"j  c #484848",
"k  c #524E43",
"l  c #514F49",
"z  c #555145",
"x  c #5A5544",
"c  c #5E5945",
"v  c #595648",
"b  c #5C594B",
"n  c #55544B",
"m  c #635C43",
"M  c #615D4A",
"N  c #6B6445",
"B  c #6E684D",
"V  c #696347",
"C  c #71694A",
"Z  c #796D41",
"A  c #7C7246",
"S  c #7F7A56",
"D  c #7A7555",
"F  c #726D50",
"G  c #9E7C1F",
"H  c #856C24",
"J  c #846E2B",
"K  c #8C7325",
"L  c #8A732B",
"P  c #86732E",
"I  c #957722",
"U  c #9B7C21",
"Y  c #967B2A",
"T  c #846F32",
"R  c #82723C",
"E  c #8A7838",
"W  c #927E39",
"Q  c #877946",
"!  c #827D5C",
"~  c #AA851C",
"^  c #B68E1A",
"/  c #BD941D",
"(  c #99853D",
")  c #998236",
"_  c #A48424",
"`  c #AC8B28",
"'  c #B38E22",
"]  c #BC9A2C",
"[  c #B69226",
"{  c #A58C39",
"}  c #AD9134",
"|  c #B59A3A",
" . c #B89A36",
".. c #BEA23B",
"X. c #C59A1D",
"o. c #CB9F1D",
"O. c #C3961B",
"+. c #D4A41B",
"@. c #DCAB1C",
"#. c #DFAA15",
"$. c #CEA01A",
"%. c #E1AE1A",
"&. c #E4B21E",
"*. c #C89E24",
"=. c #C39D26",
"-. c #CDA224",
";. c #CCA52C",
":. c #DBAD23",
">. c #D2AA2C",
",. c #DAAE2B",
"<. c #D4A824",
"1. c #DBB02D",
"2. c #DFB227",
"3. c #C5A232",
"4. c #CAA837",
"5. c #D3AC33",
"6. c #D9AF30",
"7. c #DCB433",
"8. c #D6B33B",
"9. c #DAB63A",
"0. c #DDB93B",
"q. c #D7B83F",
"w. c #E3B424",
"e. c #E1B52D",
"r. c #E5B92D",
"t. c #EAB925",
"y. c #E2B935",
"u. c #EBBF32",
"i. c #E3BC3B",
"p. c #E2B730",
"a. c #F1BF2C",
"s. c #EBC33C",
"d. c #E9C33B",
"f. c #F3C535",
"g. c #F8CC3D",
"h. c #8E8248",
"j. c #9D8A43",
"k. c #9E8E4A",
"l. c #968544",
"z. c #9B8D51",
"x. c #968B53",
"c. c #A18E49",
"v. c #A69244",
"b. c #A6944A",
"n. c #AB9746",
"m. c #B29943",
"M. c #A69B5C",
"N. c #A49658",
"B. c #BCA84A",
"V. c #BDA751",
"C. c #888760",
"Z. c #A39A65",
"A. c #AEA566",
"S. c #B8AD68",
"D. c #C6AC45",
"F. c #CDB145",
"G. c #CBB24D",
"H. c #D5B643",
"J. c #D7B942",
"K. c #DCBD4B",
"L. c #DBBC47",
"P. c #C6B254",
"I. c #CAB655",
"U. c #D6BE53",
"Y. c #D2BD5A",
"T. c #D9BE53",
"R. c #C0AE57",
"E. c #E2BF43",
"W. c #DAC55D",
"Q. c #E5C243",
"!. c #EAC643",
"~. c #EDCA45",
"^. c #E3C34D",
"/. c #ECCB4B",
"(. c #E8C64D",
"). c #F1CC44",
"_. c #FACD41",
"`. c #F4D44D",
"'. c #FBDA4C",
"]. c #F6D144",
"[. c #E3C452",
"{. c #EBCC54",
"}. c #EBCD5A",
"|. c #E6CD58",
" X c #EED25D",
".X c #EDD357",
"XX c #F3D354",
"oX c #F3D85A",
"OX c #FCDE5C",
"+X c #FDDB51",
"@X c #FFE74A",
"#X c #FFE75C",
"$X c #FFF45B",
"%X c #DACA6C",
"&X c #D8C667",
"*X c #DBCC73",
"=X c #E3CE62",
"-X c #E8CF68",
";X c #EAD166",
":X c #E9D56B",
">X c #F1D564",
",X c #F2DB63",
"<X c #F3DC6C",
"1X c #F0D36B",
"2X c #E7DB79",
"3X c #F4DD72",
"4X c #F3DE7B",
"5X c #FBE56C",
"6X c #FBE668",
"7X c #FFFE66",
"8X c #FBEC7C",
"9X c #F8E679",
"0X c #FCF37B",
"qX c #F2DE83",
"wX c #F6E384",
"eX c #F9E988",
"rX c #FEF285",
"tX c #FFFF86",
"yX c #FAEA93",
"uX c #FEF297",
/* pixels */
"                                                                                                                                                      ",
"                                                                                                                                                      ",
"                                                                                                                                                      ",
"                                                                j j j j j j j j j j j                                                                 ",
"                                                      j j j j j j j j j j j j j j j j j j j j j                                                       ",
"                                                  j j j j j j j j j j j j j j j j j j j j j j j j j                                                   ",
"                                            j j j j j j j j j j j j j j j j j j j j j j j j j j j j j j j                                             ",
"                                        j j j j j j j j j j j j j j j j j j j j j j j j j j j j j j j j j j j                                         ",
"                                      j j j j j j j j j j j j j j j j j j j j j j j j j j j j j j j j j j j j j                                       ",
"                                  j j j j j j j j j j j j h $ # # @ @ + + + + + @ @ # # $ j j j j j j j j j j j j j                                   ",
"                                f j j j j j j j j j j $ # + + + O + + + + + + + + + + + + @ @ $ j j j j j j j j j j j                                 ",
"                              j j j j j j j j j f # @ + + + + + + + + + + + O + + + + + + + + + + # f j j j j j j j j j                               ",
"                            j j j j j j j j f # + + + + + + + # # $ f j j j j j $ $ # # + + + + + + + # j j j j j j j j j                             ",
"                          j j j j j j j j $ + + + + + + # $ j j j j j j j j j j j j j j j f # + + + + + + $ j j j j j j j j                           ",
"                        j j j j j j j f @ + + + + @ $ j j j j j j j j j j j j j j j j j j j j j $ @ + + + + @ f j j j j j j j                         ",
"                      j j j j j j j $ @ + + + + $ j j j j j j j j j j j j j j j j j j j j j j j j j $ + + + + @ $ j j j j j j j                       ",
"                    j j j j j j j $ + + + + # j j j j j j j j j j j j j j j j j j j j j j j j j j j j j # + + + + $ j j j j j j f                     ",
"                  f j j j j j j $ O + O + $ j j j j j j j j j j j j j j j j j j j j j j j j j j j j j j j $ + + + + # j j j j j j f                   ",
"                  j j j j j j $ + + + @ f j j j j j j j j j j j j j j j j j j j j j j j j j j j j j j j j j f + + + + $ j j j j j j                   ",
"                f j j j j j $ + + + @ f j j j j j j j j j j j j j j j j j j j j j j j j j j j j j j j j j j j j @ O + + $ j j j j j j                 ",
"              $ j j j j j f + + + + f j j j j j j j j j j j j j j j j j j j j j j j j j j j j j j j j j j j j j f @ + + + j j j j j j f               ",
"              j j j j j j @ + + + f j j j j j j j j j j j j j j j j j j j j j j j j j j j j j j j j j j j j j j j j + + + @ j j j j j j               ",
"            f j j j j f $ + + + $ j j j j j j j j j j j j j j j j j j j j j j j j j j j j j j j j j j j j j j j j j $ + + + # j j j j j $             ",
"            j j j j j f + + + # j j j j j j j j j j j j j j j j j j j j - , ; j j j j j j j j j j j j j j j j j j j j # + + + j j j j j j             ",
"          $ j j j j j # + + + h j j j j j j j j j 4 4 h j j j j j j j 3 i P i c h j j j j j g : < k j j j j j j j j j j @ + + @ j j j j j $           ",
"          f j j j j $ + + + $ h j j j j j j j j h P L 2 g j j j j f k ) D.W.D.) n j j j j j < 5 J u h j j j j j j j j j $ + + + f j j j j f           ",
"          j j j j j # + + @ j j j j j j j j j g u ..4.W 0 j j j j j c -.+X7X+X] x h j j j j y )  .{ 0 g j j j j j j j j j @ + + # j j j j j           ",
"        $ j j j j j + + + $ j j j j j j j j j e ' |.6X{.x.j j j j j 4 ' Q.`.0._ z j j j j - ( |.6XY.u = j j j j j j j j j $ + + + j j j j j $         ",
"        f j j j j $ + O @ j j j j j j j j j g 5 U (.$X).( h j j j j h 8 | L.m.0 h j j j j f ) d.$XW.5 > j j j j j j j j j j @ + + $ j j j j f         ",
"        j j j j j @ + + # j h x V V v j j j j , e | i.>.) h j j j h j j k.G.c.j j j j j j j ( 7.~.n.4 $ j j j h x 0 V c j j # + + @ j j j j j         ",
"        j j j j j + + + f - 7 ( G.B.Q k j j j g < y Y ` i h j j j h j j z.Y.N.g j j j j j h k.W.v.0 h g j j j k d ..P.h.4 f f + + + j j j j j         ",
"      # j j j j $ + + @ j > e D.7X@Xc.x j j j j j f * _ P h j j j j j j N.&XN.j j j j j j h A.%XS j j j j j j v ( @X7XB.8 $ j + + + $ j j j j #       ",
"      $ j j j j # + + # j = e ..#X].c.n j j j j j j i *.Y l j j j j j $ N.*XZ.j j j j j j h A.2XC.j j j j j j z ( g.$XB.2 % j @ + + # j j j j $       ",
"      $ j j j j @ + + $ j g 2 s } D.Q l j j j j j j R 5.[ 2 g j j j g > b.Y.x.$ j j j j z Q &XqXC.j j j j j j : t } v.d 4 f j $ + + @ j j j j $       ",
"      f j j j j @ + + $ j j j : 3 h.A M l j j j j j A 8.5.P k j j j h t | F.( > j j j j M P.0X2X! j j j j j z 3 y 2 2 : j j j $ + + @ j j j j f       ",
"      j j j j j + + + g j j j j g b l.c.C j j j j j Z 6.s.3.m j j j n ( ;.>._ 8 h j j j M :XtX2XS j j j j j C b.h.- - f j j j f + + + j j j j j       ",
"      j j j j j + + + j j j j j j j j.H.c.: j j j j p 5.g.8.p g j j n D.y.:.] ( l j h v Q =X0X:XS j j j j b v.J.j.j j j j j j j + + + j j j j j       ",
"      j j j j j + + + j j j j j j j s ]  .E k f j j p >.a.3.K 7 j j b U.d.e.7.P.b j l h.F.7.@X=XS j j j b n.9.] i j j j j j j j + + + j j j j j       ",
"      j j j j j + + + j j j j j j j 7 K =.} 7 f j j s ;.2.*.3.Q k j M &X!.r.!.&XM j b M.,Xw.].W.D j j n d F.3.K * j j j j j j j + + + j j j j j       ",
"      j j j j j + + + j j j j j j j - 5 } 3.J 2 j j s <.%.X.g.m.v j v Y.s.r./.*Xb j M S.6Xt.s.W.D j j A ..>._ * - j j j j j j f + + + j j j j j       ",
"      j j j j j + + + j j j j j j j f < K ;.4.R % j Z -.:.X.y. .u % , G.p.w./.*Xl 0 v.H.s.&.g.Y.D j , ( L.,.I < j j j j j j j - + + + j j j j f       ",
"      $ j j j j @ + + $ j j j j j j j < H o.y.} t j p *.%.O.;.3.{ a p G.i.i.{.&Xv ! Y.f.%.%.s.P.B : Q B.0.:.I k j j j j j j j $ + + @ j j j j $       ",
"      # j j j j @ + + # j j j j j j j k H O.O.>.3.m p *.:.O.X.9.T.V.c.T.[.}.>X%XQ S.3XXX@.w.d.G.N B &X^.<.$.Y 4 j j j j j j j $ + + # j j j j #       ",
"      @ j j j j # + + # j j j j j j j x H ~ ^ 0.~.N.c.5.2.*.$.y./.E.F.[.{.>X>X;XR.*X4XoXd.s.|.&XN.A.4XXXo.^ J 4 j j j j j j f # + + # j j j j @       ",
"      + j j j j $ + + @ j j j j j j j h e _ 3.L. X>XXXE.7.,.e.e.r.u.s.d.(. X XXX<X6X6X>X,X5X3X3X9XwX3X}.5._ 6 h j j j j j j j @ + + $ j j j j +       ",
"        j j j j j + + + f j j j j j j g 3 ( K..X{.).s.y.:.p.4X1Xs.r.s.7.;XwX3X].,X,X<XwXuXwX8X9X8X5X,X/.8.P , f j j j j j j f + + + j j j j j         ",
"        $ j j j j @ + + # j j j j j j j g A =XOX).u.e.&.%.w.1X1Xi.u.s.0.:XwX3X/.,X>X<XeXuXrX0X0X5X,XoX'.q.a - f j j j j j j # + + @ j j j j $         ",
"        @ j j j g $ + + @ j j j j j j j f B =X#X/.u.r.w.&.&.i.i.y.y.i.E.[.}.}.|.oXoX,X3X9XrXrX8X5X,XoX'.J.N f j j j j j j f @ + + $ j j j j @         ",
"        o j j j j j + + + $ j j j j j j j B %X#X!.Q.!.!.!.y.:.:.,.1.7.9.7.7.7.Q.E.Q.~.{. XeXeXeXwX:X.X'.q.V j j j j j j j $ + + + j j j j j O         ",
"          $ j j j j # + + @ j j j j j j j F |.XXE.^.;X3X;X[.8.>.-.o.o.o.+.+.+.+.@.@.e.p.(.1XwXyXqX-X(.).H.B j j j j j j j @ + + # j j j j $           ",
"          @ j j j j f + + + $ j j j j j j C T.~.,.>.6.7.7.,.<.<.+.+.+.@.@.@.%.%.&.&.t.t.f.f.g._.g.f.f.].U.B j j j j j j $ + + + $ j j j j +           ",
"          X j j j j j @ + + @ j j j j j j b c.{ Y I I I G G G ~ _ ^ ^ ^ ^ / / / / O./ / / / ' ' ' ` ` m.z.V j j j j j j + + + # j j j j j X           ",
"            @ j j j j j + + + # j j j j j h M m 7 3 1 & & * 5 6 w r r H H H H H H H r r e w 5 5 7 8 0 V M h j j j j h # + + + f j j j j #             ",
"            X j j j j j # + + + $ j j j j j j j j j f f $ % % ; = , , , , , 2 2 2 , , ; - - $ g f j j j j j j j j j f + + + # j j j j j X             ",
"              @ j j j j j @ + + + g j j j j j j j j j j h j j j j j j j j j j j j j j j j j j j j j j j j j j j j f + + + @ j j j j j @               ",
"              . $ j j j j j + + + @ j j j j j j j j j j j j j j j j j j j j j j j j j j j j j j j j j j j j j j f @ + + + f j j j j f .               ",
"                O j j j j j $ + + + @ f j j j j j j j j j j j j j j j j j j j j j j j j j j j j j j j j j j j j @ + + + $ j j j j j O                 ",
"                . @ j j j j j $ + + + @ $ j j j j j j j j j j j j j j j j j j j j j j j j j j j j j j j j j f @ O + + $ j j j j j @ .                 ",
"                  . $ j j j j j # + + + + $ j j j j j j j j j j j j j j j j j j j j j j j j j j j j j j j $ + + + + # j j j j j $ .                   ",
"                    o j j j j j f $ + + + + # j j j j j j j j j j j j j j j j j j j j j j j j j j j j f # + + + + $ j j j j j j o                     ",
"                    . O j j j j j j $ @ + + + + $ j j j j j j j j j j j j j j j j j j j j j j j j j $ @ + + + + $ j j j j j j o .                     ",
"                      . O j j j j j j j @ + + + + + $ j j j j j j j j j j j j j j j j j j j j j # @ + + + + @ j j j j j j j O .                       ",
"                        . O j j j j j j j $ + + + + + + # f j j j j j j j j j j j j j j j $ # + + + + + + $ j j j j j j j O .                         ",
"                          . o f j j j j j j j # + + + + + + + # # $ $ j j j j f f $ # @ @ + + + + O + # j j j j j j j j O .                           ",
"                            . X $ j j j j j j j j # + + + + + + + + + + + + + + + O + + + + + + + $ j j j j j j j j $ X .                             ",
"                              . . @ j j j j j j j j j $ # + + + + + O + + + + + + + + + + + # $ j j j j j j j j j @ . .                               ",
"                                . . O f j j j j j j j j j j f # # @ @ + + + + + @ @ # # $ j j j j j j j j j j $ O . .                                 ",
"                                    . . + j j j j j j j j j j j j j j j j j j j j j j j j j j j j j j j j j @ . .                                     ",
"                                      . . X @ j j j j j j j j j j j j j j j j j j j j j j j j j j j j j @ X . .                                       ",
"                                          . . X + $ j j j j j j j j j j j j j j j j j j j j j j j $ + X . .                                           ",
"                                              . . . o + # j j j j j j j j j j j j j j j j j # @ X . . .                                               ",
"                                                  . . . . X O + # # $ f j j j j $ $ # + o X . . . .                                                   ",
"                                                        . . . . . . . . . . . . . . . . . . .                                                         ",
"                                                                  . . . . . . . . .                                                                   ",
"                                                                                                                                                      "
};
