/* XPM */
static const char *white_checker_xpm[] = {
/* columns rows colors chars-per-pixel */
"75 75 91 1 ",
"  c None",
". c #000000",
"X c #050505",
"o c #060606",
"O c #151515",
"+ c #161616",
"@ c #1f1f1f",
"# c #232323",
"$ c #2C2C2C",
"% c #353535",
"& c #3A3A3A",
"* c #3E3E3E",
"= c #3F3F3F",
"- c #515151",
"; c #525252",
": c #555555",
"> c #585858",
", c #5F5F5F",
"< c #636363",
"1 c #656565",
"2 c #666666",
"3 c #676767",
"4 c #696969",
"5 c #727272",
"6 c #7E7E7E",
"7 c #828282",
"8 c #8D8D8D",
"9 c #8f8f8f",
"0 c #979797",
"q c #989898",
"w c #9F9F9F",
"e c #A0A0A0",
"r c #a3a3a3",
"t c #A4A4A4",
"y c #A5A5A5",
"u c #A9A9A9",
"i c #bfbfbf",
"p c #C0C0C0",
"a c #c9c9c9",
"s c #cccccc",
"d c #CDCDCD",
"f c #CECECE",
"g c #cfcfcf",
"h c #D0D0D0",
"j c #d1d1d1",
"k c #D2D2D2",
"l c #D3D3D3",
"z c #d4d4d4",
"x c #D5D5D5",
"c c #d6d6d6v",
"v c #D7D7D7",
"b c #D8D8D8",
"n c #d9d9d9",
"m c #DADADA",
"M c #dbdbdb",
"N c #dcdcdc",
"B c #DDDDDD",
"V c #dedede",
"C c #DFDFDF",
"Z c #e0e0e0",
"A c #E1E1E1",
"S c #E2E2E2",
"D c #e3e3e3",
"F c #E4E4E4",
"G c #e5e5e5",
"H c #E6E6E6",
"J c #E7E7E7",
"K c #e8e8e8",
"L c #E9E9E9",
"P c #EAEAEA",
"I c #ebebeb",
"U c #ECECEC",
"Y c #ededed",
"T c #EEEEEE",
"R c #EFEFEF",
"E c #f0f0f0",
"W c #F1F1F1",
"Q c #f2f2f2",
"! c #F3F3F3",
"~ c #F4F4F4",
"^ c #F5F5F5",
"/ c #F6F6F6",
"( c #f7f7f7",
") c #F8F8F8",
"_ c #F9F9F9",
"` c #fafafa",
"' c #FBFBFB",
"] c #fcfcfc",
"[ c #FDFDFD",
"{ c #FEFEFE",
"} c #FFFFFF",
/* pixels */
"                                                                           ",
"                                                                           ",
"                                                                           ",
"                                [[[[[[[[[[[                                ",
"                           )[[[[[[[[[[[[[[[[[[[)                           ",
"                         [[[[[[[[[[[[[[[[[[[[[[[[)                         ",
"                      )[[[[[[[[[[[[[[[[[[[[[[[[[[[[[)                      ",
"                    )[[[[[[[[[[[[[[[[[[[[[[[[[[[[[[[[[)                    ",
"                   [[[[[[[[[[[[[[[[[[[[[[[[[[[[[[[[[[[[[                   ",
"                 ~[[[[[[[[[[[[~PABzkdsdkzBAU~[[[[[[[[[[[[~                 ",
"                [[[[[[[[[[[WAkdsssddssddssddskAU[[[[[[[[[[)                ",
"               [[[[[[[[[)PkdddddsssssssdssdddddskP[[[[[[[[[[               ",
"              [[[[[[[[)JdddssskBJU)[[[[[~WPBkdssdsdJ[[[[[[[[[              ",
"             [[[[[[[[UksddskJ~[[[[[[[[[[[[[[[WJksssskP[[[[[[[[             ",
"            [[[[[[[)BddsdmU[[[[[[[[[[[[[[[[[[[[[UmssddB)[[[[[[[            ",
"           [[[[[[[~kdddkU[[[[[[[[[[[[[[[[[[[[[[[[[Pkdddk~[[[[[[[           ",
"          ~[[[[[[UddsdA[[[[[[[[[[[[[[[[[[[[[[[[[[[[[JssddP[[[[[[~          ",
"         U[[[[[[UddddW[[[[[[[[[[[[[[[[[[[[[[[[[[[[[[[WddddP[[[[[[U         ",
"         [[[[[[Udssz)[[[[[[[[[[[[[[[[[[[[[[[[[[[[[[[[[)zsddP[[[[[[         ",
"        )[[[[[Wdddz[[[[[[[[[[[[[[[[[[[[[[[[[[[[[[[[[[[[[zddsW[[[[[)        ",
"       A[[[[[)ksdm[[[[[[[[[[[[[[[[[[[[[[[[[[[[[[[[[[[[[[[zssk)[[[[[A       ",
"       [[[[[[mssk)[[[[[[[[[[[[[[[[[[[[[[[[[[[[[[[[[[[[[[[~ksdB[[[[[[       ",
"      A[[[[[PddsW[[[[[[[[[[[[[[[[[[[[[[[[[[[[[[[[[[[[[[[[[WdddP[[[[[B      ",
"      [[[[[)dddJ[[[[[[[[[[[[[[[[[UAmkddkmAU[[[[[[[[[[[[[[[[Jddd)[[[[[      ",
"     k[[[[[Assz[[[[[[[[[[[[[[[[AkddssdddddddA)[[[[[[[[[[[[[[mssA[[[[[k     ",
"     W[[[[)dsdW[[[[[[[[[[[[[[JdddzP~)[[)WPmsddP[[[[[[[[[[[[[Wsss)[[[[W     ",
"     [[[[[AddB[[[[[[[[[[[[[[BsdA~[[[[[[[[[[~Bddm[[[[[[[[[[[[[mssA[[[[[     ",
"    k[[[[[dddW[[[[[[[[[[[[[mdkU[[[[[[[[[[[[[[Ukdm[[[[[[[[[[[[Wssk[[[[[k    ",
"    U[[[[Ussz[[[[[[[[[[[[[Bsz~[[[[[[[[[[[[[[[[)zdB[[[[[[[[[[[[mddP[[[[U    ",
"    [[[[[BssP[[[[[[[[[[[[Jdk)[[[[[[[[[[[[[[[[[[)kdP[[[[[[[[[[[Jsdm[[[[[    ",
"    [[[[[ddd)[[[[[[[[[[[~ddW[[[[[[[[[[[[[[[[[[[[Wdd~[[[[[[[[[[)ddd[[[[[    ",
"   p[[[[~ddz[[[[[[[[[[[[AdA[[[[[[[[[[[[[[[[[[[[[[AdB[[[[[[[[[[[zdd~[[[[p   ",
"   k[[[[JsdA[[[[[[[[[[[)dd)[[[[[[[[[[[[[[[[[[[[[[)dd)[[[[[[[[[[AssJ[[[[z   ",
"   J[[[[BsdP[[[[[[[[[[[UdB[[[[[[[[[[[[[[[[[[[[[[[[BdU[[[[[[[[[[UssB[[[[A   ",
"   U[[[[zdd~[[[[[[[[[[[BdP[[[[[[[[[[[[[[[[[[[[[[[[UdB[[[[[[[[[[~ssm[[[[U   ",
"   )[[[[kdd)[[[[[[[[[[[zd~[[[[[[[[[[[[[[[[[[[[[[[[~dz[[[[[[[[[[)ddk[[[[)   ",
"   [[[[[ddd[[[[[[[[[[[[dd[[[[[[[[[[[[[[[[[[[[[[[[[[dd[[[[[[[[[[[ssd[[[[[   ",
"   [[[[[ddd[[[[[[[[[[[[dd[[[[[[[[[[[[[[[[[[[[[[[[[[dd[[[[[[[[[[[ssd[[[[[   ",
"   [[[[[dsd[[[[[[[[[[[[dd[[[[[[[[[[[[[[[[[[[[[[[[[[dd[[[[[[[[[[[ssd[[[[[   ",
"   ~[[[[ddd[[[[[[[[[[[[kd)[[[[[[[[[[[[[[[[[[[[[[[[)dz[[[[[[[[[[[sdk[[[[~   ",
"   P[[[[kdd)[[[[[[[[[[[BsP[[[[[[[[[[[[[[[[[[[[[[[[PsB[[[[[[[[[[)ssk[[[[P   ",
"   m[[[[zddW[[[[[[[[[[[PsB[[[[[[[[[[[[[[[[[[[[[[[[BsU[[[[[[[[[[~ssz[[[[m   ",
"   p[[[[BddP[[[[[[[[[[[[dd)[[[[[[[[[[[[[[[[[[[[[[)ds)[[[[[[[[[[UssA[[[[p   ",
"   e[[[[JssA[[[[[[[[[[[[AdA[[[[[[[[[[[[[[[[[[[[[[AdA[[[[[[[[[[[AssP[[[[e   ",
"   5[[[[~ddz[[[[[[[[[[[[~ddW[[[[[[[[[[[[[[[[[[[[Wdd~[[[[[[[[[[[zssW[[[[5   ",
"    [[[[[dds)[[[[[[[[[[[[Jdk)[[[[[[[[[[[[[[[[[[)zdJ[[[[[[[[[[[)ddd[[[[[    ",
"    m[[[[BssP[[[[[[[[[[[[[msz)[[[[[[[[[[[[[[[[)zdB[[[[[[[[[[[[PddB[[[[m    ",
"    e[[[[Psdm[[[[[[[[[[[[[[mdkU[[[[[[[[[[[[[[Wkdm[[[[[[[[[[[[[zddU[[[[e    ",
"    :[[[[[dddW[[[[[[[[[[[[[[BddB~[[[[[[[[[[~BddB[[[[[[[[[[[[[Wddd[[[[[:    ",
"     B[[[[Addm[[[[[[[[[[[[[[[PdddmPW[[[)~JmdddP[[[[[[[[[[[[[[BsdJ[[[[B     ",
"     9[[[[)dssW[[[[[[[[[[[[[[[)JddssddddddddA)[[[[[[[[[[[[[[Udss)[[[[9     ",
"     #[[[[[Asdm[[[[[[[[[[[[[[[[[[UAmdddkzAW[[[[[[[[[[[[[[[[[zddB[[[[[#     ",
"      y[[[[)dssJ[[[[[[[[[[[[[[[[[[[[[[[[[[[[[[[[[[[[[[[[[[[Jddd)[[[[y      ",
"      $[[[[[PsssW[[[[[[[[[[[[[[[[[[[[[[[[[[[[[[[[[[[[[[[[[WsddP[[[[[$      ",
"       q[[[[[mssk)[[[[[[[[[[[[[[[[[[[[[[[[[[[[[[[[[[[[[[[)ksdB[[[[[q       ",
"       oJ[[[[)dsdz[[[[[[[[[[[[[[[[[[[[[[[[[[[[[[[[[[[[[[[mssk)[[[[Ao       ",
"        1[[[[[Wddsz[[[[[[[[[[[[[[[[[[[[[[[[[[[[[[[[[[[[[zdddW[[[[[4        ",
"        .y[[[[[Udddz)[[[[[[[[[[[[[[[[[[[[[[[[[[[[[[[[[)zdddU[[[[[y.        ",
"         .k[[[[[PdsskU[[[[[[[[[[[[[[[[[[[[[[[[[[[[[[[WddddP[[[[[k.         ",
"          &W[[[[[PsdddJ[[[[[[[[[[[[[[[[[[[[[[[[[[[[[AdddsP[[[[[~&          ",
"          .>[[[[[[~kssdkU[[[[[[[[[[[[[[[[[[[[[[[[[Uzdssk~[[[[[[>.          ",
"           .4[[[[[[[BssddmU[[[[[[[[[[[[[[[[[[[[[UmddddB)[[[[[[4.           ",
"            .1[[[[[[[PkdsddkA~[[[[[[[[[[[[[[[~AkssddkU[[[[[[[1.            ",
"             .:~[[[[[[)JddddddkBPW~[[[[[~WPBkdsssssJ[[[[[[[W:.             ",
"              .%k[[[[[[[[JzddsssssssssdsssssddsdkJ[[[[[[[[k%.              ",
"               ..e[[[[[[[[[WAkssddssssddssssdkBW[[[[[[[[[e..               ",
"                ..<A[[[[[[[[[[~PABzksddkzmAP)[[[[[[[[[[A,..                ",
"                  .o9[[[[[[[[[[[[[[[[[[[[[[[[[[[[[[[[[9o.                  ",
"                   ..#0)[[[[[[[[[[[[[[[[[[[[[[[[[[[[q#..                   ",
"                     ..+6m[[[[[[[[[[[[[[[[[[[[[[[z6+..                     ",
"                       ...=9k[[[[[[[[[[[[[[[[[k9-...                       ",
"                         ....+;7usAW[[[WAsu7:+....                         ",
"                            ...................                            ",
"                                 .........                                 ",
"                                                                           "
};
