/* XPM */
static const char *white_queen_xpm[] = {
/* columns rows colors chars-per-pixel */
"75 75 217 2 ",
"   c None",
".  c #000000",
"X  c #161616",
"o  c #1E1E1E",
"O  c #272727",
"+  c #3C3C3C",
"@  c #343434",
"#  c #555555",
"$  c #5F5E5E",
"%  c #656565",
"&  c #696868",
"*  c #787777",
"=  c #B78E19",
"-  c #BE941B",
";  c #AF8818",
":  c #BB9938",
">  c #B6952D",
",  c #CB9F1D",
"<  c #C5991D",
"1  c #D4A41B",
"2  c #DCAB1C",
"3  c #DFAA15",
"4  c #CEA01A",
"5  c #E1AE1A",
"6  c #E4B21E",
"7  c #C49D2C",
"8  c #C49D24",
"9  c #CCA42B",
"0  c #CDA121",
"q  c #DBAD23",
"w  c #D3AA2C",
"e  c #DAAE2B",
"r  c #D6A823",
"t  c #DBB02D",
"y  c #DFB227",
"u  c #CBA632",
"i  c #C9A738",
"p  c #D5AD35",
"a  c #DCB433",
"s  c #D6B13C",
"d  c #DAB63A",
"f  c #DEBA3B",
"g  c #D7B137",
"h  c #E3B424",
"j  c #E5B92D",
"k  c #E6B728",
"l  c #E2B934",
"z  c #EBBF32",
"x  c #E4BC3C",
"c  c #E1B738",
"v  c #F1BF2C",
"b  c #EBC33C",
"n  c #E9C33B",
"m  c #F3C535",
"M  c #F8CC3D",
"N  c #B19748",
"B  c #BDA55D",
"V  c #BBA359",
"C  c #AF9E69",
"Z  c #BBA563",
"A  c #B9A66A",
"S  c #B9A978",
"D  c #C09F43",
"F  c #C7A849",
"G  c #DAB947",
"H  c #C6AB58",
"J  c #CEB253",
"K  c #DCBD53",
"L  c #D6B955",
"P  c #D0AF51",
"I  c #E4BE43",
"U  c #E1BD58",
"Y  c #C3AA61",
"T  c #CAB368",
"R  c #D5BD6B",
"E  c #D2B563",
"W  c #CAB675",
"Q  c #D1BB75",
"!  c #D4BD79",
"~  c #C1AC70",
"^  c #DEC154",
"/  c #DEC45C",
"(  c #E5C142",
")  c #EAC544",
"_  c #E5C34C",
"`  c #EDCB4B",
"'  c #EAC74A",
"]  c #F1CD44",
"[  c #F5CE46",
"{  c #F4D54E",
"}  c #FCD84B",
"|  c #E4C553",
" . c #EBCC55",
".. c #E6CB5C",
"X. c #EED25D",
"o. c #EDD357",
"O. c #F3D354",
"+. c #FDDC52",
"@. c #F3D85A",
"#. c #F8DB5D",
"$. c #FFE74A",
"%. c #FFE35C",
"&. c #FFEB5E",
"*. c #FFF45B",
"=. c #D9C56A",
"-. c #D8C376",
";. c #E4CB67",
":. c #EBD36B",
">. c #EAD368",
",. c #F1D564",
"<. c #F3DB63",
"1. c #F2DB6C",
"2. c #F0D36B",
"3. c #E7CE79",
"4. c #EAD479",
"5. c #ECDA79",
"6. c #F5DD72",
"7. c #F3DD7A",
"8. c #F0D672",
"9. c #FAE56C",
"0. c #FCE668",
"q. c #FFFE66",
"w. c #F6E37C",
"e. c #FBEC7C",
"r. c #F8E577",
"t. c #FCF37B",
"y. c #8E8D8D",
"u. c #828282",
"i. c #908F8F",
"p. c #9C9B9B",
"a. c #979696",
"s. c #A19F9F",
"d. c #BBAD84",
"f. c #BFB492",
"g. c #A3A2A2",
"h. c #A9A9A9",
"j. c #CBBC8D",
"k. c #C6B787",
"l. c #C6BA95",
"z. c #C7BEA6",
"x. c #C0BEBE",
"c. c #D8C789",
"v. c #CFC39A",
"b. c #CDC294",
"n. c #D7C896",
"m. c #DED297",
"M. c #CFC389",
"N. c #E3CD89",
"B. c #E4D28C",
"V. c #EAD786",
"C. c #F1DB88",
"Z. c #E2D49C",
"A. c #EAD694",
"S. c #EBD795",
"D. c #F5E384",
"F. c #F9E785",
"G. c #F8E989",
"H. c #FEF587",
"J. c #F3E29C",
"K. c #F9E894",
"L. c #FDF394",
"P. c #CCC4A9",
"I. c #D4CAAC",
"U. c #D7CBA6",
"Y. c #DCD3A5",
"T. c #CCC6BB",
"R. c #D4CCB3",
"E. c #D3CBBB",
"W. c #DAD3BC",
"Q. c #D9D2B9",
"!. c #E4D7A7",
"~. c #E5DBBA",
"^. c #EDE4A5",
"/. c #F6E9A9",
"(. c #F6E9BC",
"). c #F6E8B9",
"_. c #F6E9B6",
"`. c #CCCCCC",
"'. c #D0CECE",
"]. c #D3CFC2",
"[. c #D5D2CA",
"{. c #DAD5C7",
"}. c #D3D3D3",
"|. c #DCDCDC",
" X c #D9D7D2",
".X c #E3DDC4",
"XX c #E5DFCF",
"oX c #E1DEDC",
"OX c #E0DCD1",
"+X c #EEE5CA",
"@X c #EBE2C5",
"#X c #F2EBCC",
"$X c #F4E8C5",
"%X c #EAE6D2",
"&X c #EDE9DC",
"*X c #E9E5D8",
"=X c #F3EBD2",
"-X c #F4EEDE",
";X c #F6F0D4",
":X c #FBF5D4",
">X c #FEFBDA",
",X c #F9F4DA",
"<X c #E3E2E2",
"1X c #E8E5E2",
"2X c #EFECE5",
"3X c #EBEBEB",
"4X c #F2EEE2",
"5X c #F0EEEC",
"6X c #F5F1E3",
"7X c #F9F4E4",
"8X c #F4F3EC",
"9X c #F9F6EB",
"0X c #FCF9EC",
"qX c #F4F4F3",
"wX c #F8F6F5",
"eX c #FCFAF3",
"rX c #FFFFFF",
/* pixels */
"                                                                                                                                                      ",
"                                                                                                                                                      ",
"                                                                                                                                                      ",
"                                                            5XqXeXrXrXrXrXrXrXrXrXrXeXqX5X                                                            ",
"                                                      wXeXrXrXrXrXrXrXrXrXrXrXrXrXrXrXrXrXrXeXwX                                                      ",
"                                                qXeXrXrXrXrXrXrXrXrXrXrXrXrXrXrXrXrXrXrXrXrXrXrXrXeXqX                                                ",
"                                            qXrXrXrXrXrXrXrXrXrXrXrXrXrXrXrXrXrXrXrXrXrXrXrXrXrXrXrXrXrXwX                                            ",
"                                        wXrXrXrXrXrXrXrXrXrXrXrXrXrXrXrXrXrXrXrXrXrXrXrXrXrXrXrXrXrXrXrXrXrXwX                                        ",
"                                    5XeXrXrXrXrXrXrXrXrXrXrXrXrXrXrXrXrXrXrXrXrXrXrXrXrXrXrXrXrXrXrXrXrXrXrXrXwX5X                                    ",
"                                  wXrXrXrXrXrXrXrXrXrXrXrXrXwX3X<X|.}.`.`.`.`.}.}.|.|.3XqXrXrXrXrXrXrXrXrXrXrXrXrXqX                                  ",
"                                wXrXrXrXrXrXrXrXrXrXrXqX|.}.`.`.`.`.`.`.`.`.`.`.`.`.`.`.`.}.|.qXrXrXrXrXrXrXrXrXrXrXwX                                ",
"                            <XrXrXrXrXrXrXrXrXrXrX<X}.`.`.`.`.`.`.`.`.`.`.`.`.`.`.`.`.`.`.`.`.`.}.1XwXrXrXrXrXrXrXrXrXrX<X                            ",
"                          1XrXrXrXrXrXrXrXrXrX<X`.`.`.`.`.`.}.3XwXwXrXrXrXrXrXrXrXwXwX1X}.`.`.`.`.`.`.<XrXrXrXrXrXrXrXrXrX<X                          ",
"                        <XrXrXrXrXrXrXrXrX3X}.`.`.`.`.}.3XrXrXrXrXrXrXrXrXrXrXrXrXrXrXrXrXrXqX}.`.`.`.`.}.3XrXrXrXrXrXrXrXrX<X                        ",
"                      |.rXrXrXrXrXrXrXwX|.`.`.`.`.|.wXrXrXrXrXrXrXrXrXrXrXrXrXrXrXrXrXrXrXrXrXrXrX|.`.`.`.`.|.wXrXrXrXrXrXrXrXoX                      ",
"                      rXrXrXrXrXrXrXqX}.`.`.`.|.wXrXrXrXrXrXrXrXrXrXrXrXrXrXrXrXrXrXrXrXrXrXrXrXrXrXwX|.`.`.`.}.qXrXrXrXrXrXrXrX                      ",
"                    wXrXrXrXrXrXrX3X`.`.`.`.qXrXrXrXrXrXrXrXrXrXrXrXrXrXrXrXrXrXrXrXrXrXrXrXrXrXrXrXrXrXqX`.`.`.`.3XrXrXrXrXrXrXqX                    ",
"                  3XrXrXrXrXrXrX3X`.`.`.}.wXrXrXrXrXrXrXrXrXrXrXrXrXrXrXrXrXrXrXrXrXrXrXrXrXrXrXrXrXrXrXrXwX}.`.`.`.3XrXrXrXrXrXrX3X                  ",
"                }.rXrXrXrXrXrX3X`.`.`.|.rXrXrXrXrXrXrXrXrXrXrXrXrXrXrXrXrXrXrXrXrXrXrXrXrXrXrXrXrXrXrXrXrXrXrX|.`.`.`.3XrXrXrXrXrXrX}.                ",
"                wXrXrXrXrXrXqX`.`.`.<XrXrXrXrXrXrXrXrXrXrXrXrXrXrXrXrXrXrXrXrXrXrXrXrXrXrXrXrXrXrXrXrXrXrXrXrXrX<X`.`.`.qXrXrXrXrXrXwX                ",
"              oXrXrXrXrXrXwX`.`.`.|.rXrXrXrXrXrXrXrXrXrXrXrXrXrXrXrXrXrXrXrXrXrXrXrXrXrXrXrXrXrXrXrXrXrXrXrXrXrXrX|.`.`.}.wXrXrXrXrXrXoX              ",
"              rXrXrXrXrXrX|.`.`.}.rXrXrXrXrXrXrXrXrXrXrXrXrXrXrXrXrXrXrXrXrXrXrXrXrXrXrXrXrXrXrXrXrXrXrXrXrXrXrXrXrX}.`.`.|.rXrXrXrXrXrX              ",
"            |.rXrXrXrXrX3X`.`.`.rXrXrXrXrXrXrXrXrXrXrXrXrXrXrXrXrXrXrXrXrXrXrXrXrXrXrXrXrXrXrXrXrXrXrXrXrXrXrXrXrXrXrX`.`.`.1XrXrXrXrXrX|.            ",
"            rXrXrXrXrXwX`.`.`.qXrXrXrXrXrXrXrXrXrXrXrXrXrXrXrXrXrXrXrXrXOXE.*XrXrXrXrXrXrXrXrXrXrXrXrXrXrXrXrXrXrXrXrXqX`.`.`.wXrXrXrXrXrX            ",
"          '.rXrXrXrXrX<X`.`.<XrXrXrXrXrXrXrXrXrXrX4X=X3XwXrXrXrXrXrXeX=XM.W n.-XrXrXrXrXrXrXwX&X%X6XrXrXrXrXrXrXrXrXrXrX|.`.`.<XrXrXrXrXrX'.          ",
"          5XrXrXrXrXwX`.`.`.rXrXrXrXrXrXrXrXrXrX2XN.! I.*XrXrXrXrXrX0X-...;.;.N.9XrXrXrXrXrXXXl.Q !.eXrXrXrXrXrXrXrXrXrXrX`.`.`.wXrXrXrXrX5X          ",
"        g.rXrXrXrXrX<X`.`.<XrXrXrXrXrXrXrXrXrX4XU.G p W ~.rXrXrXrXrX7Xw +.0.+.s 7XrXrXrXrXwXU.H i Q @XwXrXrXrXrXrXrXrXrXrX<X`.`.<XrXrXrXrXrXg.        ",
"        '.rXrXrXrXrX`.`.`.wXrXrXrXrXrXrXrXrXeXn.i ..0.0.^.rXrXrXrXrX7Xi b { f P 7XrXrXrXrX*XB.<.0.;.S W.wXrXrXrXrXrXrXrXrXwX`.`.`.rXrXrXrXrX'.        ",
"        3XrXrXrXrX3X`.`.|.rXrXeXqXrXrXrXrXrXeXl.: _ *.%.J.eXrXrXrXrXeX~.:. .3.@XeXrXrXrXrXqXN.{ q.;.d.[.wXrXrXrXrXrXwXrXrXrX|.`.`.3XrXrXrXrX3X        ",
"        rXrXrXrXrX|.`.`.qXwX2X.XQ.#X7XrXrXrXeX{.S L ) ( S.eXrXrXrXrXrXrXJ.:.J.rXrXrXrXrXrXeXA.] { 3.R.1XrXrXrXrX7X+X.X%X8XwXqX`.`.|.rXrXrXrXrX        ",
"      s.rXrXrXrXrX`.`.`.rXoXP.-.5.7.(.eXrXrXrX2X%XI.Y i A.eXrXrXrXrXrXrX/.w./.rXrXrXrXrXrXrX/...N.@X3XeXrXrXrXwX_.8.5.m.W.3XrX`.`.`.rXrXrXrXrXs.      ",
"      x.rXrXrXrXqX`.`.|.rXT.C J q.$.K.0XrXrXrXrXrXqXl.F N.rXrXrXrXrXrXwX^.F._.rXrXrXrXrXrXeX/.G.#XrXrXrXrXrXrX7XC.$.q.=.f.}.rX|.`.`.qXrXrXrXrXx.      ",
"      }.rXrXrXrX3X`.`.3XrXE.A J &.} J.9XrXrXrXrXrXrXZ.c N.eXrXrXrXrXrX|.m.K.(.rXrXrXrXrXrX2X^.L.>XrXrXrXrXrXrX9XS.} &.=.f. XrX3X`.`.3XrXrXrXrX}.      ",
"      <XrXrXrXrX|.`.`.wXrX2XW.M.R ^ !.0XrXrXrXrXrXrX).I G I.8XrXrXrXwXz.W ;.m.<XrXrXrXrX9Xm.5.L.>XrXrXrXrXrXrX*Xj.J R n.{.5XrXwX`.`.|.rXrXrXrX<X      ",
"      3XrXrXrXrX}.`.`.wXrXrXeX Xl.M.Y.%XeXrXrXrXrXrX$X' g T -XrXrXrX9Xk.F G Q T.wXrXrXrX6X4.t.L.>XrXrXrXrXrX2XI.l.l.z.|.qXrXrXrX`.`.}.rXrXrXrX3X      ",
"      wXrXrXrXrX}.`.`.rXrXrXrXwX1X*XZ.B.=XrXrXrXrXrX$XI m K ,XrXrXrX9XQ s p F l.9XrXrXrX%XD.H.H.:XrXrXrXrXrX@XN.m.*X<XwXrXrXrXrX`.`.}.rXrXrXrXwX      ",
"      rXrXrXrXrX`.`.`.rXrXrXrXrXrXrXB.^ N.4XrXrXrXrX).I M I ~.5XrXrX9X;.f q i -.9XrXrX-XY.1.t.H.:XrXrXrXrX6XB.| S.rXrXrXrXrXrXrX`.`.`.rXrXrXrXrX      ",
"      rXrXrXrXrX`.`.`.rXrXrXrXrXrXrXn.i u c.9XrXrXrX(.I v u V U.9XrX0X7.n y d 5.0XrX0X!.^ j +.w.:XrXrXrXeXC.d i c.rXrXrXrXrXrXrX`.`.`.rXrXrXrXrX      ",
"      rXrXrXrXrX`.`.`.rXrXrXrXrXrXrXU.N 7 P I.2XrXrX(.I y 8 u A.wXrX9Xw.b j ) F.0XrX8X^.#.h ] w.:XrXrX6Xm.^ u N U.rXrXrXrXrXrXrX`.`.`.rXrXrXrXrX      ",
"      wXrXrXrXrX`.`.`.rXrXrXrXrXrXrX[.S N u Z Q.wXrX(.x 5 , ) C.-XrX-X7.n l ` G.0XrX%XK.0.k M w.:XrXeXY.J w : d.[.rXrXrXrXrXrXrX`.`.`.rXrXrXrXqX      ",
"      3XrXrXrXrX}.`.`.rXrXrXrXrXrXrXwXW.V w G M. XrX(.x 5 8 l L j.].W.;.l h ' F.5X.XN._ b 6 M 5.>XeXR.Q G t H {.wXrXrXrXrXrXrXrX`.`.}.rXrXrXrX3X      ",
"      |.rXrXrXrX}.`.`.rXrXrXrXrXrXrXrX&XY 8 a P v.qX$Xx 5 < 9 i H k.l./ I x  .C.{.!.>.b 3 2 n 5.=X*XM.J x q E &XrXrXrXrXrXrXrXrX`.`.}.rXrXrXeX}.      ",
"      x.rXrXrXrX|.`.`.wXrXrXrXrXrXrXrX4XT - < w U $X~.d q < 8 g ..=.Q ;.|  .,.5.b.Z.w.O.2 6 ( :.R.W.V._ r 1 =.6XrXrXrXrXrXrXrXwX`.`.|.rXrXrXrX`.      ",
"      p.rXrXrXrX3X`.`.3XrXrXrXrXrXrXrX6XW ; = a O.S.B.I e 4 4 l ` | K |  .X.,.>.=.5.r.#.n )  .:.m.Z.w.O., = Q 6XrXrXrXrXrXrXrX3X`.`.3XrXrXrXrXp.      ",
"      * rXrXrXrXqX`.`.|.rXrXrXrXrXrXrX6Xk.> 7 K ,.<.X.I a e e k j z n n ' o.o.O.0.9.9.,.,.9.1.6.e.G.6. .p : k.8XrXrXrXrXrXrXrX|.`.`.qXrXrXrXrX&       ",
"      O rXrXrXrXrX`.`.`.rXrXrXrXrXrXrXqXP.Z ^ O.` ` b z 5 j C.8.n j n a >.G.r.] <.<.1.D.L.F.e.e.r.9.@.O.G Z P.qXrXrXrXrXrXrXrX`.`.`.rXrXrXrXrXO       ",
"      . |.rXrXrXrX|.`.`.qXrXrXrXrXrXrXqX Xv.1.%.] z k 6 5 y 1.,.z l n f >.D.6. .<.<.1.G.L.H.t.e.9.0.@.{ _ j. XwXrXrXrXrXrXrXqX`.`.|.rXrXrXrX|..       ",
"      . p.rXrXrXrX3X`.`.|.rXrXrXrXrXrXrXqX~.7.%.` z j h 6 6 x x l l n G | .. . .o.@.<.1.w.H.H.e.r.<.@.}  .~.wXrXrXrXrXrXrXrX|.`.`.3XrXrXrXrXs..       ",
"        # rXrXrXrXrX`.`.`.rXrXrXrXrXrXrXrX;Xw.#.] n ' ' ( l q r e e t l a a c I I I ' ` ,.r.H.K.w.<.o.{ o.#XrXrXrXrXrXrXrXrX`.`.`.rXrXrXrXrX#         ",
"        . |.rXrXrXrX<X`.`.1XrXrXrXrXrXrXrX>Xr.O.I ^ >.1.,.U s w 0 , , , 1 1 1 1 5 q y j ' 2.C.C.V.>.| ]  .;XrXrXrXrXrXrXrX1X`.`.<XrXrXrXrX|..         ",
"        . i.rXrXrXrXwX`.`.`.wXrXrXrXrXrXrX=X..] e r e a c e r 1 r 1 1 2 1 2 5 6 6 6 h v v m M [ M m m [ ;.:XrXrXrXrXrXrXrX`.`.`.wXrXrXrXrXy..         ",
"          o rXrXrXrXrX<X`.`.|.rXrXrXrXrXrX7XA.=.E H H D D N 7 : : 7 7 7 7 9 7 9 9 w 9 p p G G G G K ;.5.S.7XrXrXrXrXrXrX|.`.`.|.rXrXrXrXrXo           ",
"          . h.rXrXrXrXwX`.`.`.qXrXrXrXrXrXeX-X+X.X.XR.l.l.d.S S A Z Z V V V Y V Y Y Y ~ W k.k.v.I.~.+X=X7XeXrXrXrXrXrXqX`.`.`.wXrXrXrXrXh..           ",
"          . O rXrXrXrXrX3X`.`.`.rXrXrXrXrXrXrXrXrXrXrX3X<X}.'.].E.T.R.R.I.R.R.I.R.E.E.].[. X|.1XwXrXrXrXrXrXrXrXrXrXwX`.`.`.3XrXrXrXrXrXO .           ",
"            . p.rXrXrXrXrX|.`.`.}.rXrXrXrXrXrXrXrXrXrXrXrXrXrXrXrXrXrXrXrXrXrXrXrXrXrXrXrXrXrXrXrXrXrXrXrXrXrXrXrXrX}.`.`.|.rXrXrXrXrXp..             ",
"            . . <XrXrXrXrXwX}.`.`.|.rXrXrXrXrXrXrXrXrXrXrXrXrXrXrXrXrXrXrXrXrXrXrXrXrXrXrXrXrXrXrXrXrXrXrXrXrXrXrX|.`.`.}.wXrXrXrXrX<X. .             ",
"              . % rXrXrXrXrXqX`.`.`.<XrXrXrXrXrXrXrXrXrXrXrXrXrXrXrXrXrXrXrXrXrXrXrXrXrXrXrXrXrXrXrXrXrXrXrXrXrX<X`.`.`.qXrXrXrXrXrX% .               ",
"                . g.rXrXrXrXrX3X`.`.`.|.rXrXrXrXrXrXrXrXrXrXrXrXrXrXrXrXrXrXrXrXrXrXrXrXrXrXrXrXrXrXrXrXrXrXrX|.`.`.`.3XrXrXrXrXrXh..                 ",
"                . . }.rXrXrXrXrX3X`.`.`.}.wXrXrXrXrXrXrXrXrXrXrXrXrXrXrXrXrXrXrXrXrXrXrXrXrXrXrXrXrXrXrXrXwX}.`.`.`.3XrXrXrXrXrX}.. .                 ",
"                  . + qXrXrXrXrXrX3X`.`.`.`.qXrXrXrXrXrXrXrXrXrXrXrXrXrXrXrXrXrXrXrXrXrXrXrXrXrXrXrXrXrXqX`.`.`.`.3XrXrXrXrXrXqX+ .                   ",
"                    . # rXrXrXrXrXrXqX}.`.`.`.}.wXrXrXrXrXrXrXrXrXrXrXrXrXrXrXrXrXrXrXrXrXrXrXrXrXrXwX|.`.`.`.}.qXrXrXrXrXrXrX# .                     ",
"                    . . % rXrXrXrXrXrXwX|.`.`.`.`.<XwXrXrXrXrXrXrXrXrXrXrXrXrXrXrXrXrXrXrXrXrXrXwX<X`.`.`.`.|.wXrXrXrXrXrXrX% . .                     ",
"                      . . % rXrXrXrXrXrXrX3X}.`.`.`.`.|.qXwXrXrXrXrXrXrXrXrXrXrXrXrXrXrXrXrXqX}.`.`.`.`.}.3XrXrXrXrXrXrXrX% . .                       ",
"                        . . # qXrXrXrXrXrXrXrX<X`.`.`.`.`.`.}.3XwXwXrXrXrXrXrXrXrXwXqX3X}.`.`.`.`.`.`.<XrXrXrXrXrXrXrXqX# . .                         ",
"                          . . @ }.rXrXrXrXrXrXrXwX3X}.`.`.`.`.`.`.`.`.`.`.`.`.`.`.`.`.`.`.`.`.`.}.<XrXrXrXrXrXrXrXrX}.@ . .                           ",
"                            . . . s.rXrXrXrXrXrXrXrXrXqX|.}.`.`.`.`.`.`.`.`.`.`.`.`.`.`.`.}.|.qXrXrXrXrXrXrXrXrXrXg.. . .                             ",
"                              . . . $ <XrXrXrXrXrXrXrXrXrXrXwX3X<X|.}.`.`.`.`.`.}.|.<X3XwXrXrXrXrXrXrXrXrXrXrX<X$ . . .                               ",
"                                  . . . y.rXrXrXrXrXrXrXrXrXrXrXrXrXrXrXrXrXrXrXrXrXrXrXrXrXrXrXrXrXrXrXrXrXy.. . .                                   ",
"                                    . . . O p.wXrXrXrXrXrXrXrXrXrXrXrXrXrXrXrXrXrXrXrXrXrXrXrXrXrXrXrXwXp.O . . .                                     ",
"                                        . . . X * }.rXrXrXrXrXrXrXrXrXrXrXrXrXrXrXrXrXrXrXrXrXrXrX|.* X . . .                                         ",
"                                          . . . . . + y.`.rXrXrXrXrXrXrXrXrXrXrXrXrXrXrXrXrX`.y.+ . . . . .                                           ",
"                                              . . . . . . X # u.h.`.<XwXwXrXwXqX|.`.h.u.# X . . . . . .                                               ",
"                                                    . . . . . . . . . . . . . . . . . . . . . . .                                                     ",
"                                                          . . . . . . . . . . . . . . . . .                                                           ",
"                                                                                                                                                      "
};
